<svg class="img-fluid" id="outputsvg" xmlns="http://www.w3.org/2000/svg" style="transform: matrix(1.44805, 0, 0, 1.44805, 0, 0); transform-origin: 50% 50%; cursor: move; max-height: 367.3px; transition: none 0s ease 0s;" width="300" height="300" viewBox="0 0 3000 3000"><g id="l4zbdVJuof92dj1gF2VH4HS" fill="rgb(255,255,255)" style="transform: none;"><g style="transform: none;"><path id="p5b6AYqb0" d="M768 2167 l-127 -112 0 -662 -1 -663 158 0 157 1 98 87 c67 59 109 106 131 145 18 31 35 59 38 62 3 3 36 -9 74 -27 63 -30 77 -33 164 -33 84 0 102 3 152 28 113 56 215 177 255 305 9 28 20 52 23 52 4 0 39 -30 79 -67 l73 -68 -21 -48 c-54 -125 -182 -261 -302 -321 -95 -48 -202 -70 -298 -63 -83 7 -197 38 -250 68 -34 20 -35 20 -53 1 -19 -18 -18 -19 59 -54 43 -19 103 -42 133 -49 76 -19 444 -19 519 0 48 12 55 12 63 -3 8 -13 29 -16 138 -16 l130 0 100 91 100 91 0 684 0 684 -136 0 -135 0 -48 -40 -48 -41 -47 20 c-106 46 -153 53 -395 58 -133 3 -236 1 -240 -4 -3 -5 -31 -17 -61 -26 -30 -10 -61 -21 -67 -24 -9 -3 -13 5 -13 26 l0 31 -137 0 -138 0 -127 -113z m352 -85 l0 -148 -90 -159 c-50 -87 -93 -161 -95 -164 -3 -2 -5 136 -5 307 l0 312 95 0 95 0 0 -148z m486 140 c11 -7 454 -784 454 -796 0 -4 -48 -5 -107 -4 l-108 3 -222 393 c-123 217 -223 398 -223 403 0 11 190 12 206 1z m273 -27 c43 -14 104 -42 137 -63 60 -40 149 -125 185 -178 30 -44 79 -142 79 -158 0 -13 -139 -146 -153 -146 -2 0 -8 15 -11 33 -9 46 -61 153 -98 199 -47 59 -121 114 -186 138 -32 12 -63 29 -68 38 -6 9 -30 53 -54 96 l-44 79 68 -7 c37 -4 102 -18 145 -31z m431 -151 l0 -187 -26 49 c-33 63 -83 130 -128 173 -33 32 -36 39 -36 93 l0 58 95 0 95 0 0 -186z m-716 -277 c130 -230 236 -425 236 -435 0 -38 -89 -200 -102 -186 -3 2 -90 155 -194 339 -104 184 -192 335 -195 335 -4 0 -116 -195 -250 -432 -230 -409 -247 -437 -312 -498 -38 -36 -73 -66 -78 -68 -5 -2 -9 247 -8 605 l1 608 88 78 c48 42 91 77 94 77 3 0 7 -174 8 -386 l3 -386 225 396 c174 308 227 393 236 384 6 -7 118 -201 248 -431z m-357 375 c-17 -32 -40 -69 -49 -83 -17 -24 -17 -23 -17 42 l-1 67 38 15 c61 26 64 21 29 -41z m833 27 c0 -18 -2 -19 -15 -9 -15 12 -12 30 6 30 5 0 9 -10 9 -21z m-209 -215 c73 -37 135 -103 174 -187 18 -40 36 -85 39 -100 7 -28 6 -28 -35 -25 -42 3 -42 4 -94 95 -28 51 -61 103 -73 116 -12 13 -27 38 -33 57 -7 19 -19 43 -27 53 -20 23 -10 22 49 -9z m449 -455 l0 -240 -95 83 -94 83 -1 83 c0 59 4 82 13 82 6 1 48 34 92 75 44 41 81 75 83 75 1 0 2 -108 2 -241z m-911 118 l48 -86 -165 -290 -164 -291 -109 0 -109 0 30 53 c16 28 114 201 217 384 103 183 192 328 196 324 5 -5 30 -47 56 -94z m671 -57 c0 -16 -2 -30 -5 -30 -2 0 -11 14 -20 30 -15 29 -15 30 5 30 16 0 20 -7 20 -30z m-520 -207 c36 -65 83 -148 104 -187 l39 -69 -58 6 c-79 8 -171 55 -229 117 l-47 51 37 67 c55 100 75 132 82 132 4 0 36 -53 72 -117z m630 -43 l65 -60 -85 1 -85 0 -65 59 -65 60 85 0 85 -1 65 -59z m-687 -213 c28 -14 69 -28 90 -32 20 -4 37 -10 37 -14 0 -4 -23 -15 -51 -25 -73 -27 -185 -19 -259 18 -30 15 -57 29 -58 31 -3 3 29 64 65 123 l14 23 55 -50 c30 -27 78 -61 107 -74z m777 93 c0 -20 -49 -106 -95 -167 -82 -110 -240 -206 -381 -232 -95 -18 -104 -14 -45 19 134 74 234 178 299 312 l37 77 93 1 c57 0 92 -4 92 -10z m40 -140 l0 -100 -65 0 -65 0 43 58 c23 32 51 77 61 100 10 23 21 42 23 42 1 0 3 -45 3 -100z m-1251 -157 c0 -5 -27 -32 -60 -60 l-59 -53 -100 0 c-55 0 -100 2 -100 5 0 3 26 30 58 60 l57 54 103 1 c56 0 102 -3 101 -7z m1201 -1 c0 -4 -27 -31 -60 -60 l-60 -53 -87 3 -88 3 80 57 c77 54 82 56 148 57 37 1 67 -2 67 -7z"></path></g></g></svg>